<?xml version="1.0" encoding="UTF-8"?>
<svg id="vector" xmlns="http://www.w3.org/2000/svg" xmlns:xlink="http://www.w3.org/1999/xlink" version="1.1" viewBox="0 0 50 50">
  <!-- Generator: Adobe Illustrator 29.6.1, SVG Export Plug-In . SVG Version: 2.1.1 Build 9)  -->
  <defs>
    <style>
      .st0 {
        fill: url(#Degradado_sin_nombre_2);
      }

      .st1 {
        fill: url(#Degradado_sin_nombre_21);
      }
    </style>
    <radialGradient id="Degradado_sin_nombre_2" data-name="Degradado sin nombre 2" cx="-15.5" cy="67.5" fx="-15.5" fy="67.5" r="412.9" gradientTransform="translate(25.9 28.8) scale(0 0)" gradientUnits="userSpaceOnUse">
      <stop offset="0" stop-color="#4dba87"/>
      <stop offset="1" stop-color="#00d4ad"/>
    </radialGradient>
    <radialGradient id="Degradado_sin_nombre_21" data-name="Degradado sin nombre 2" cx="32.3" cy="190" fx="32.3" fy="190" r="110.1" xlink:href="#Degradado_sin_nombre_2"/>
  </defs>
  <g id="g_0">
    <g>
      <path class="st0" d="M46.8,21.2c0-.7,0-1.5-.2-2.2-.1-.8-.3-1.7-.5-2.5-.3-.9-.5-1.9-.9-2.8-.5-1.3-1.2-2.6-2-3.8-.9-1.4-2-2.7-3.2-3.8-.8-.8-1.6-1.5-2.5-2.1-1-.7-2.1-1.3-3.2-1.9-1.2-.6-2.5-1.1-3.8-1.4-.8-.2-1.6-.4-2.3-.5-.8-.1-1.5-.2-2.3-.2-1.6,0-3.1,0-4.7.3-.9.2-1.8.4-2.7.7-.8.2-1.6.5-2.3.9-1.7.7-3.2,1.7-4.6,2.8-.9.7-1.7,1.5-2.4,2.3-.8.9-1.5,1.8-2.2,2.8-.6.9-1.1,1.9-1.6,2.9-.3.7-.6,1.5-.9,2.2-.2.7-.4,1.4-.6,2.1-.2,1-.4,2-.5,2.9,0,.6,0,1.3,0,1.9,0,.6,0,1.1,0,1.7,0,.9.2,1.8.3,2.7.2,1,.5,2,.8,3,.3,1,.7,1.9,1.1,2.8.7,1.4,1.5,2.8,2.4,4.1.8,1.1,1.6,2.1,2.4,3.1,1.1,1.2,2.2,2.4,3.4,3.5,1,.9,2.1,1.8,3.2,2.6,1.1.8,2.3,1.6,3.5,2.4,1.2.7,2.5,1.5,3.9,2,.3,0,.5.2.8.1.7-.2,1.4-.5,2.1-.8,1.8-.9,3.5-2,5.1-3.1,1.5-1.1,2.9-2.2,4.3-3.5,1.6-1.4,3-3,4.3-4.7.9-1.2,1.7-2.4,2.5-3.7.7-1.2,1.3-2.4,1.8-3.6.3-.7.6-1.5.8-2.3.2-.7.4-1.4.5-2.2.1-.6.2-1.3.3-1.9,0-1,.2-2,0-3h0ZM41,25.7c-.3,1.6-.9,3.1-1.7,4.5-.9,1.6-1.9,3-3.2,4.2-1.2,1.1-2.5,2-3.9,2.7-1.2.6-2.4,1-3.7,1.3-1.1.2-2.2.4-3.4.4-.2,0-.3,0-.5,0-1.2,0-2.3-.2-3.5-.5-2-.5-3.8-1.3-5.5-2.5-1.8-1.3-3.3-2.9-4.5-4.8-.8-1.2-1.4-2.5-1.8-3.9-.4-1.2-.6-2.3-.7-3.5,0-1.1,0-2.1,0-3.2,0-1,.3-1.9.5-2.9.3-1.2.8-2.3,1.4-3.4.9-1.7,2.1-3.2,3.5-4.5,1.9-1.7,4-2.9,6.4-3.6,1-.3,2-.5,3-.6.5,0,1,0,1.6,0s1,0,1.6,0c.9,0,1.7.2,2.6.5.7.2,1.4.4,2.1.7,1.4.6,2.7,1.3,3.8,2.3,1.6,1.2,2.9,2.7,3.9,4.5.7,1.2,1.3,2.5,1.7,3.9.3,1,.5,1.9.6,2.9,0,.6,0,1.2,0,1.8,0,1.2,0,2.4-.3,3.6h0Z"/>
      <path class="st1" d="M22.2,18.1c0-1.5,0-3,0-4.6,0-.5,0-1.1.4-1.5.5-.6,1.2-1,2-.9.9,0,1.5.6,1.8,1.4.1.3.1.6.1.9,0,2.2,0,4.4,0,6.6s.1.3.3.3c1.3,0,2.6,0,3.9,0,1.1,0,2,.7,2.3,1.7.3,1.6-.7,2.9-2.2,2.9s-4.2,0-6.4,0c-1.3,0-2.3-.9-2.3-2.3v-4.6h0Z"/>
    </g>
  </g>
</svg>